# xmcd
#
# Track frame offsets: 
#        150
#        20663
#        38098
#        61750
#        77723
#        98175
#        119353
#        138438
#        162855
#        178688
#        195538
#        217995
#        239298
#        261670
#        279645
#
# Disc length: 3997 seconds
#
# Revision: 5
# Processed by: cddbd v1.5.2PL0 Copyright (c) Steve Scherf et al.
# Submitted via: ExactAudioCopy v1.0b3
#
DISCID=d40f9b0f
DTITLE=张信哲 - 精选 CD1
DYEAR=2000
DGENRE=Pop
TTITLE0=爱如潮水
TTITLE1=有一点动心
TTITLE2=我是真的爱你
TTITLE3=让我忘记你的脸
TTITLE4=相信相依
TTITLE5=要你亲口对我说
TTITLE6=不会让你后悔
TTITLE7=我最爱的女人
TTITLE8=你是最美丽会微笑的脸
TTITLE9=风言风语
TTITLE10=想你是一种鼓励
TTITLE11=今夜梦里有雾
TTITLE12=临别一眼
TTITLE13=我在这里守候
TTITLE14=握握手好吗
EXTD=YEAR: 2000 ID3G:   0
EXTT0=
EXTT1=
EXTT2=
EXTT3=
EXTT4=
EXTT5=
EXTT6=
EXTT7=
EXTT8=
EXTT9=
EXTT10=
EXTT11=
EXTT12=
EXTT13=
EXTT14=
PLAYORDER=
